<mxfile host="app.diagrams.net" agent="Mozilla/5.0 (X11; Ubuntu; Linux x86_64; rv:137.0) Gecko/20100101 Firefox/137.0" version="26.2.14">
  <diagram name="PÃ¡gina-1" id="0lMDu_NgT2sa5GZt6NKO">
    <mxGraphModel dx="1511" dy="883" grid="1" gridSize="10" guides="1" tooltips="1" connect="1" arrows="1" fold="1" page="1" pageScale="1" pageWidth="827" pageHeight="1169" math="0" shadow="0">
      <root>
        <mxCell id="0" />
        <mxCell id="1" parent="0" />
        <mxCell id="VoxpSTxa0Td4lm3N55Ew-1" value="" style="shape=folder;fontStyle=1;spacingTop=10;tabWidth=40;tabHeight=14;tabPosition=left;html=1;whiteSpace=wrap;" parent="1" vertex="1">
          <mxGeometry x="60" y="80" width="505" height="760" as="geometry" />
        </mxCell>
        <mxCell id="r7I5Y4Q_3ATri8Q4CC5I-1" value="" style="shape=folder;fontStyle=1;spacingTop=10;tabWidth=40;tabHeight=14;tabPosition=left;html=1;whiteSpace=wrap;" parent="1" vertex="1">
          <mxGeometry x="70" y="110" width="480" height="710" as="geometry" />
        </mxCell>
        <mxCell id="VoxpSTxa0Td4lm3N55Ew-6" value="Portal-Pagamentos" style="text;align=center;fontStyle=1;verticalAlign=middle;spacingLeft=3;spacingRight=3;strokeColor=none;rotatable=0;points=[[0,0.5],[1,0.5]];portConstraint=eastwest;html=1;" parent="1" vertex="1">
          <mxGeometry x="272.5" y="94" width="80" height="26" as="geometry" />
        </mxCell>
        <mxCell id="VoxpSTxa0Td4lm3N55Ew-3" value="" style="shape=folder;fontStyle=1;spacingTop=10;tabWidth=40;tabHeight=14;tabPosition=left;html=1;whiteSpace=wrap;" parent="1" vertex="1">
          <mxGeometry x="100" y="170" width="420" height="140" as="geometry" />
        </mxCell>
        <mxCell id="r7I5Y4Q_3ATri8Q4CC5I-2" value="WebServer" style="text;align=center;fontStyle=1;verticalAlign=middle;spacingLeft=3;spacingRight=3;strokeColor=none;rotatable=0;points=[[0,0.5],[1,0.5]];portConstraint=eastwest;html=1;" parent="1" vertex="1">
          <mxGeometry x="272.5" y="120" width="80" height="26" as="geometry" />
        </mxCell>
        <mxCell id="0aCJ0kU_tg2QngoIXiXY-2" value="API" style="shape=folder;fontStyle=1;spacingTop=10;tabWidth=40;tabHeight=14;tabPosition=left;html=1;whiteSpace=wrap;" vertex="1" parent="1">
          <mxGeometry x="120" y="220" width="100" height="65" as="geometry" />
        </mxCell>
        <mxCell id="0aCJ0kU_tg2QngoIXiXY-4" value="Repository" style="shape=folder;fontStyle=1;spacingTop=10;tabWidth=40;tabHeight=14;tabPosition=left;html=1;whiteSpace=wrap;" vertex="1" parent="1">
          <mxGeometry x="404" y="220" width="100" height="65" as="geometry" />
        </mxCell>
        <mxCell id="0aCJ0kU_tg2QngoIXiXY-5" value="" style="shape=folder;fontStyle=1;spacingTop=10;tabWidth=40;tabHeight=14;tabPosition=left;html=1;whiteSpace=wrap;" vertex="1" parent="1">
          <mxGeometry x="100" y="330" width="420" height="140" as="geometry" />
        </mxCell>
        <mxCell id="0aCJ0kU_tg2QngoIXiXY-6" value="" style="shape=folder;fontStyle=1;spacingTop=10;tabWidth=40;tabHeight=14;tabPosition=left;html=1;whiteSpace=wrap;" vertex="1" parent="1">
          <mxGeometry x="100" y="490" width="420" height="140" as="geometry" />
        </mxCell>
        <mxCell id="0aCJ0kU_tg2QngoIXiXY-7" value="" style="shape=folder;fontStyle=1;spacingTop=10;tabWidth=40;tabHeight=14;tabPosition=left;html=1;whiteSpace=wrap;" vertex="1" parent="1">
          <mxGeometry x="100" y="650" width="420" height="140" as="geometry" />
        </mxCell>
        <mxCell id="0aCJ0kU_tg2QngoIXiXY-8" value="Controller" style="shape=folder;fontStyle=1;spacingTop=10;tabWidth=40;tabHeight=14;tabPosition=left;html=1;whiteSpace=wrap;" vertex="1" parent="1">
          <mxGeometry x="120" y="380" width="100" height="65" as="geometry" />
        </mxCell>
        <mxCell id="0aCJ0kU_tg2QngoIXiXY-9" value="Mapper" style="shape=folder;fontStyle=1;spacingTop=10;tabWidth=40;tabHeight=14;tabPosition=left;html=1;whiteSpace=wrap;" vertex="1" parent="1">
          <mxGeometry x="404" y="380" width="100" height="65" as="geometry" />
        </mxCell>
        <mxCell id="0aCJ0kU_tg2QngoIXiXY-10" value="Service" style="shape=folder;fontStyle=1;spacingTop=10;tabWidth=40;tabHeight=14;tabPosition=left;html=1;whiteSpace=wrap;" vertex="1" parent="1">
          <mxGeometry x="120" y="540" width="100" height="65" as="geometry" />
        </mxCell>
        <mxCell id="0aCJ0kU_tg2QngoIXiXY-11" value="Factory" style="shape=folder;fontStyle=1;spacingTop=10;tabWidth=40;tabHeight=14;tabPosition=left;html=1;whiteSpace=wrap;" vertex="1" parent="1">
          <mxGeometry x="404" y="540" width="100" height="65" as="geometry" />
        </mxCell>
        <mxCell id="0aCJ0kU_tg2QngoIXiXY-12" value="Domain" style="shape=folder;fontStyle=1;spacingTop=10;tabWidth=40;tabHeight=14;tabPosition=left;html=1;whiteSpace=wrap;" vertex="1" parent="1">
          <mxGeometry x="260" y="700" width="100" height="65" as="geometry" />
        </mxCell>
        <mxCell id="0aCJ0kU_tg2QngoIXiXY-13" value="" style="endArrow=open;endSize=12;dashed=1;html=1;rounded=0;exitX=0.25;exitY=1;exitDx=0;exitDy=0;exitPerimeter=0;entryX=0.248;entryY=0.01;entryDx=0;entryDy=0;entryPerimeter=0;" edge="1" parent="1" source="0aCJ0kU_tg2QngoIXiXY-2" target="0aCJ0kU_tg2QngoIXiXY-8">
          <mxGeometry width="160" relative="1" as="geometry">
            <mxPoint x="170" y="330" as="sourcePoint" />
            <mxPoint x="330" y="330" as="targetPoint" />
          </mxGeometry>
        </mxCell>
        <mxCell id="0aCJ0kU_tg2QngoIXiXY-15" value="" style="endArrow=open;endSize=12;dashed=1;html=1;rounded=0;entryX=0.75;entryY=1;entryDx=0;entryDy=0;entryPerimeter=0;exitX=0.753;exitY=0.196;exitDx=0;exitDy=0;exitPerimeter=0;" edge="1" parent="1" source="0aCJ0kU_tg2QngoIXiXY-8" target="0aCJ0kU_tg2QngoIXiXY-2">
          <mxGeometry width="160" relative="1" as="geometry">
            <mxPoint x="200" y="380" as="sourcePoint" />
            <mxPoint x="360" y="380" as="targetPoint" />
          </mxGeometry>
        </mxCell>
        <mxCell id="0aCJ0kU_tg2QngoIXiXY-16" value="" style="endArrow=open;endSize=12;dashed=1;html=1;rounded=0;exitX=0.25;exitY=1;exitDx=0;exitDy=0;exitPerimeter=0;entryX=0.248;entryY=0.01;entryDx=0;entryDy=0;entryPerimeter=0;" edge="1" parent="1">
          <mxGeometry width="160" relative="1" as="geometry">
            <mxPoint x="428" y="285" as="sourcePoint" />
            <mxPoint x="428" y="381" as="targetPoint" />
          </mxGeometry>
        </mxCell>
        <mxCell id="0aCJ0kU_tg2QngoIXiXY-17" value="" style="endArrow=open;endSize=12;dashed=1;html=1;rounded=0;entryX=0.75;entryY=1;entryDx=0;entryDy=0;entryPerimeter=0;exitX=0.753;exitY=0.196;exitDx=0;exitDy=0;exitPerimeter=0;" edge="1" parent="1">
          <mxGeometry width="160" relative="1" as="geometry">
            <mxPoint x="478" y="393" as="sourcePoint" />
            <mxPoint x="478" y="285" as="targetPoint" />
          </mxGeometry>
        </mxCell>
        <mxCell id="0aCJ0kU_tg2QngoIXiXY-18" value="" style="endArrow=open;endSize=12;dashed=1;html=1;rounded=0;exitX=0.25;exitY=1;exitDx=0;exitDy=0;exitPerimeter=0;entryX=0.248;entryY=0.01;entryDx=0;entryDy=0;entryPerimeter=0;" edge="1" parent="1">
          <mxGeometry width="160" relative="1" as="geometry">
            <mxPoint x="428" y="445" as="sourcePoint" />
            <mxPoint x="428" y="541" as="targetPoint" />
          </mxGeometry>
        </mxCell>
        <mxCell id="0aCJ0kU_tg2QngoIXiXY-19" value="" style="endArrow=open;endSize=12;dashed=1;html=1;rounded=0;entryX=0.75;entryY=1;entryDx=0;entryDy=0;entryPerimeter=0;exitX=0.753;exitY=0.196;exitDx=0;exitDy=0;exitPerimeter=0;" edge="1" parent="1">
          <mxGeometry width="160" relative="1" as="geometry">
            <mxPoint x="478" y="553" as="sourcePoint" />
            <mxPoint x="478" y="445" as="targetPoint" />
          </mxGeometry>
        </mxCell>
        <mxCell id="0aCJ0kU_tg2QngoIXiXY-20" value="" style="endArrow=open;endSize=12;dashed=1;html=1;rounded=0;exitX=0.25;exitY=1;exitDx=0;exitDy=0;exitPerimeter=0;entryX=0.248;entryY=0.01;entryDx=0;entryDy=0;entryPerimeter=0;" edge="1" parent="1">
          <mxGeometry width="160" relative="1" as="geometry">
            <mxPoint x="144.84" y="445" as="sourcePoint" />
            <mxPoint x="144.84" y="541" as="targetPoint" />
          </mxGeometry>
        </mxCell>
        <mxCell id="0aCJ0kU_tg2QngoIXiXY-21" value="" style="endArrow=open;endSize=12;dashed=1;html=1;rounded=0;entryX=0.75;entryY=1;entryDx=0;entryDy=0;entryPerimeter=0;exitX=0.753;exitY=0.196;exitDx=0;exitDy=0;exitPerimeter=0;" edge="1" parent="1">
          <mxGeometry width="160" relative="1" as="geometry">
            <mxPoint x="194.84" y="553" as="sourcePoint" />
            <mxPoint x="194.84" y="445" as="targetPoint" />
          </mxGeometry>
        </mxCell>
        <mxCell id="0aCJ0kU_tg2QngoIXiXY-23" value="" style="endArrow=open;endSize=12;dashed=1;html=1;rounded=0;entryX=0;entryY=0;entryDx=0;entryDy=39.5;entryPerimeter=0;exitX=0.5;exitY=1;exitDx=0;exitDy=0;exitPerimeter=0;" edge="1" parent="1" source="0aCJ0kU_tg2QngoIXiXY-10" target="0aCJ0kU_tg2QngoIXiXY-12">
          <mxGeometry width="160" relative="1" as="geometry">
            <mxPoint x="110" y="690" as="sourcePoint" />
            <mxPoint x="270" y="690" as="targetPoint" />
            <Array as="points">
              <mxPoint x="170" y="720" />
            </Array>
          </mxGeometry>
        </mxCell>
        <mxCell id="0aCJ0kU_tg2QngoIXiXY-24" value="" style="endArrow=open;endSize=12;dashed=1;html=1;rounded=0;exitX=0.564;exitY=1.02;exitDx=0;exitDy=0;exitPerimeter=0;entryX=0;entryY=0;entryDx=100;entryDy=39.5;entryPerimeter=0;" edge="1" parent="1" source="0aCJ0kU_tg2QngoIXiXY-11" target="0aCJ0kU_tg2QngoIXiXY-12">
          <mxGeometry width="160" relative="1" as="geometry">
            <mxPoint x="460" y="640" as="sourcePoint" />
            <mxPoint x="400" y="739.5" as="targetPoint" />
            <Array as="points">
              <mxPoint x="460" y="720" />
            </Array>
          </mxGeometry>
        </mxCell>
        <mxCell id="0aCJ0kU_tg2QngoIXiXY-25" value="Interface" style="text;align=center;fontStyle=1;verticalAlign=middle;spacingLeft=3;spacingRight=3;strokeColor=none;rotatable=0;points=[[0,0.5],[1,0.5]];portConstraint=eastwest;html=1;" vertex="1" parent="1">
          <mxGeometry x="270" y="180" width="80" height="26" as="geometry" />
        </mxCell>
        <mxCell id="0aCJ0kU_tg2QngoIXiXY-26" value="Controller" style="text;align=center;fontStyle=1;verticalAlign=middle;spacingLeft=3;spacingRight=3;strokeColor=none;rotatable=0;points=[[0,0.5],[1,0.5]];portConstraint=eastwest;html=1;" vertex="1" parent="1">
          <mxGeometry x="272.5" y="340" width="80" height="26" as="geometry" />
        </mxCell>
        <mxCell id="0aCJ0kU_tg2QngoIXiXY-27" value="Service" style="text;align=center;fontStyle=1;verticalAlign=middle;spacingLeft=3;spacingRight=3;strokeColor=none;rotatable=0;points=[[0,0.5],[1,0.5]];portConstraint=eastwest;html=1;" vertex="1" parent="1">
          <mxGeometry x="270" y="500" width="80" height="26" as="geometry" />
        </mxCell>
        <mxCell id="0aCJ0kU_tg2QngoIXiXY-28" value="Domain" style="text;align=center;fontStyle=1;verticalAlign=middle;spacingLeft=3;spacingRight=3;strokeColor=none;rotatable=0;points=[[0,0.5],[1,0.5]];portConstraint=eastwest;html=1;" vertex="1" parent="1">
          <mxGeometry x="272.5" y="661.5" width="80" height="26" as="geometry" />
        </mxCell>
        <mxCell id="0aCJ0kU_tg2QngoIXiXY-29" value="" style="endArrow=open;endSize=12;dashed=1;html=1;rounded=0;entryX=0;entryY=0;entryDx=0;entryDy=39.5;entryPerimeter=0;" edge="1" parent="1" target="0aCJ0kU_tg2QngoIXiXY-11">
          <mxGeometry width="160" relative="1" as="geometry">
            <mxPoint x="220" y="580" as="sourcePoint" />
            <mxPoint x="380" y="580" as="targetPoint" />
          </mxGeometry>
        </mxCell>
        <mxCell id="0aCJ0kU_tg2QngoIXiXY-30" value="" style="endArrow=open;endSize=12;dashed=1;html=1;rounded=0;entryX=0;entryY=0;entryDx=0;entryDy=39.5;entryPerimeter=0;" edge="1" parent="1">
          <mxGeometry width="160" relative="1" as="geometry">
            <mxPoint x="220.5" y="420" as="sourcePoint" />
            <mxPoint x="404.5" y="420" as="targetPoint" />
          </mxGeometry>
        </mxCell>
      </root>
    </mxGraphModel>
  </diagram>
</mxfile>
